<?xml version="1.0" encoding="UTF-8"?>
<svg version="1.1" xmlns="http://www.w3.org/2000/svg" width="698" height="335">
<path d="M0 0 C230.34 0 460.68 0 698 0 C698 110.55 698 221.1 698 335 C467.66 335 237.32 335 0 335 C0 224.45 0 113.9 0 0 Z " fill="#162532" transform="translate(0,0)"/>
<path d="M0 0 C9.24 0 18.48 0 28 0 C28.09071823 13.6747257 28.1639559 27.34924836 28.20724869 41.02420807 C28.22803716 47.37546558 28.25619394 53.7265048 28.30175781 60.07763672 C28.34552865 66.21794247 28.36920266 72.35803953 28.37950897 78.49848938 C28.38684461 80.8298114 28.40116773 83.16112327 28.42292023 85.49235535 C28.56721315 101.61162411 28.0732082 116.82574085 20.25 131.375 C19.90710938 132.03435547 19.56421875 132.69371094 19.2109375 133.37304688 C16.11633503 139.13872046 12.42551771 144.17453373 8 149 C7.37480469 149.70511719 6.74960938 150.41023437 6.10546875 151.13671875 C-8.05003673 166.27244253 -29.00103706 174.43704087 -49.3984375 175.2734375 C-73.5845815 175.85713651 -94.98344502 169.64667243 -113.06640625 152.9375 C-126.08347966 140.23208496 -135.75634414 122.91955945 -136.36076355 104.41888428 C-136.36928421 102.48987525 -136.36189076 100.56074603 -136.34057617 98.63183594 C-136.34101425 97.56694443 -136.34145233 96.50205292 -136.34190369 95.40489197 C-136.33983566 91.93119109 -136.31659905 88.45799018 -136.29296875 84.984375 C-136.28736573 82.55772159 -136.28309897 80.13106477 -136.28010559 77.70440674 C-136.26871249 71.35209602 -136.23929328 64.99999473 -136.20599365 58.64776611 C-136.17517297 52.15192497 -136.16157471 45.65604961 -136.14648438 39.16015625 C-136.11441796 26.43999787 -136.06169559 13.72004921 -136 1 C-126.76 1 -117.52 1 -108 1 C-107.98541748 3.96645508 -107.97083496 6.93291016 -107.95581055 9.98925781 C-107.90532464 19.82407395 -107.83870514 29.65873409 -107.76428509 39.49339676 C-107.71968345 45.45228963 -107.68040496 51.41111574 -107.65356445 57.37011719 C-107.62742954 63.1279753 -107.58695551 68.88557508 -107.53681374 74.6432724 C-107.52021372 76.83269776 -107.50865693 79.02216773 -107.50238609 81.21164703 C-107.44212707 100.32857258 -106.05844695 116.31442359 -92.25 130.93359375 C-84.52452517 138.0286913 -76.05522947 141.4344682 -66 144 C-65.05060547 144.28810547 -65.05060547 144.28810547 -64.08203125 144.58203125 C-50.19745535 147.36936637 -35.65247139 143.86670895 -23.6015625 136.828125 C-11.92606032 128.62371807 -4.39550063 117.38984275 -1.46302795 103.4468689 C-0.86527728 98.99709824 -0.82293559 94.62422326 -0.79467773 90.13916016 C-0.78477814 89.16292694 -0.77487854 88.18669373 -0.76467896 87.18087769 C-0.73319258 83.96696362 -0.70835751 80.7530348 -0.68359375 77.5390625 C-0.66301311 75.30560938 -0.64201635 73.07216006 -0.62062073 70.8387146 C-0.5655147 64.96977826 -0.51605494 59.10080744 -0.46777344 53.23181152 C-0.41747455 47.23914534 -0.36183231 41.24652902 -0.30664062 35.25390625 C-0.19919936 23.50264525 -0.09821734 11.75134172 0 0 Z " fill="#F9F9FA" transform="translate(192,78)"/>
<path d="M0 0 C19.8 0 39.6 0 60 0 C60 3.63 60 7.26 60 11 C45.81 11 31.62 11 17 11 C17 18.92 17 26.84 17 35 C28.88 35 40.76 35 53 35 C53 38.63 53 42.26 53 46 C41.12 46 29.24 46 17 46 C17 54.91 17 63.82 17 73 C32.18 73 47.36 73 63 73 C63 76.63 63 80.26 63 84 C42.21 84 21.42 84 0 84 C0 56.28 0 28.56 0 0 Z " fill="#F9F9FA" transform="translate(454,154)"/>
<path d="M0 0 C3.63 0 7.26 0 11 0 C11.33 8.25 11.66 16.5 12 25 C13.65 23.68 15.3 22.36 17 21 C20.93248322 19.03375839 25.70382306 19.67139723 30 20 C35.81059809 21.93686603 39.34924556 25.75062021 42.11328125 31.19140625 C45.0945056 40.63413888 43.74487235 51.83190165 39.4921875 60.6015625 C36.50581136 65.401654 32.55969052 68.61007737 27 70 C22.0950066 70.53583962 17.66107671 70.85342888 13.375 68.125 C12.59125 67.42375 11.8075 66.7225 11 66 C11 65.34 11 64.68 11 64 C10.34 64 9.68 64 9 64 C9 65.65 9 67.3 9 69 C6.03 69 3.06 69 0 69 C0 46.23 0 23.46 0 0 Z " fill="#F7F7F8" transform="translate(285,169)"/>
<path d="M0 0 C5.53770482 3.35114326 9.5879739 8.25615534 11.5 14.4375 C11.71531267 17.09115875 11.83386276 19.60039817 11.8125 22.25 C11.80512817 23.31903564 11.80512817 23.31903564 11.79760742 24.40966797 C11.61116561 32.76417318 9.60584882 38.4673367 3.5 44.4375 C-2.98166004 49.50326343 -10.60927552 49.33982322 -18.5 48.4375 C-25.62415368 46.45918587 -29.32188622 41.97759733 -33.10546875 35.828125 C-34.90498902 31.45282082 -35.01472837 27.74612118 -35 23.0625 C-35.02835938 22.25039062 -35.05671875 21.43828125 -35.0859375 20.6015625 C-35.10817679 13.66290407 -32.83603224 8.88590849 -28.02148438 3.90917969 C-20.57416467 -2.68251086 -9.13305483 -4.11605759 0 0 Z " fill="#F6F7F7" transform="translate(616.5,190.5625)"/>
<path d="M0 0 C1.32 0 2.64 0 4 0 C4 10.56 4 21.12 4 32 C6.90338144 33.45975864 6.90338144 33.45975864 9.89784241 34.710495 C12.27449553 35.87415974 13.45213384 36.8263808 15 39 C16.02126183 44.47872669 15.81386715 49.90399744 15.68359375 55.45703125 C15.67053086 57.08654146 15.66056995 58.71607925 15.65357971 60.34562683 C15.6269074 64.62564581 15.55819528 68.90399031 15.48065186 73.18334961 C15.40892287 77.55364326 15.37704779 81.9242087 15.34179688 86.29492188 C15.26682071 94.86404799 15.1474202 103.43181545 15 112 C12.525 112.495 12.525 112.495 10 113 C10 97.49 10 81.98 10 66 C8.35 66 6.7 66 5 66 C5.00785522 67.75751587 5.00785522 67.75751587 5.01586914 69.55053711 C5.10364115 91.05675812 5.18752154 112.51858358 4 134 C2.68 134.33 1.36 134.66 0 135 C-1.37068415 112.01656402 -1.09738766 89.01345262 -1 66 C-2.65 66 -4.3 66 -6 66 C-6 80.19 -6 94.38 -6 109 C-7.32 109 -8.64 109 -10 109 C-11.21338952 97.49346214 -11.46226932 85.996428 -11.60025311 74.43311787 C-11.64139445 71.02293696 -11.70233198 67.61559149 -11.80932617 64.20678711 C-11.9333322 60.23832158 -11.97496147 56.27105422 -12.01171875 52.30078125 C-12.06019455 51.08602615 -12.10867035 49.87127106 -12.15861511 48.6197052 C-12.14039853 40.18246102 -12.14039853 40.18246102 -8.74700928 36.66390991 C-6.94795922 35.33375928 -5.12245638 34.03854067 -3.27064514 32.78288269 C-0.63178564 31.05084772 -0.63178564 31.05084772 0.22705078 27.24609375 C0.21657715 25.98925781 0.20610352 24.73242188 0.1953125 23.4375 C0.20335907 22.76074219 0.21140564 22.08398438 0.21969604 21.38671875 C0.23453212 19.25476491 0.18109544 17.13114302 0.125 15 C0.12305513 13.54296772 0.12562059 12.08592208 0.1328125 10.62890625 C0.14058581 7.08427679 0.08719267 3.5437136 0 0 Z " fill="#F6F7F8" transform="translate(136,31)"/>
<path d="M0 0 C4.24402344 4.46798246 4.86980418 10.12456154 4.9921875 16.0234375 C5.0101387 16.70161026 5.0280899 17.37978302 5.04658508 18.07850647 C5.10021818 20.21764132 5.13442919 22.35655933 5.16796875 24.49609375 C5.20118367 25.95771218 5.23567712 27.41930215 5.27148438 28.88085938 C5.35591478 32.43989585 5.42294845 35.99900887 5.48046875 39.55859375 C8.45046875 39.06359375 8.45046875 39.06359375 11.48046875 38.55859375 C11.48046875 41.19859375 11.48046875 43.83859375 11.48046875 46.55859375 C7.61540299 47.846949 3.50080437 48.19294998 -0.51953125 47.55859375 C-3.01953125 45.55859375 -3.01953125 45.55859375 -4.51953125 43.55859375 C-5.22078125 43.84734375 -5.92203125 44.13609375 -6.64453125 44.43359375 C-7.59328125 44.80484375 -8.54203125 45.17609375 -9.51953125 45.55859375 C-10.40640625 45.92984375 -11.29328125 46.30109375 -12.20703125 46.68359375 C-18.16557945 48.25754988 -23.42381247 48.66360911 -28.95703125 45.74609375 C-35.11473597 40.48951655 -35.11473597 40.48951655 -35.828125 35.32421875 C-36.06448013 30.71171254 -36.00143611 27.40946404 -33.08203125 23.68359375 C-27.28162667 17.97761436 -21.49967888 16.33481977 -13.45703125 16.30859375 C-11.47712907 16.37209577 -9.49739219 16.44854275 -7.51953125 16.55859375 C-7.60661794 15.09914087 -7.71480032 13.64093507 -7.83203125 12.18359375 C-7.89003906 11.37148437 -7.94804687 10.559375 -8.0078125 9.72265625 C-8.34943653 7.17938037 -8.34943653 7.17938037 -11.51953125 5.55859375 C-18.55167681 4.91930779 -24.77421755 6.66990591 -31.51953125 8.55859375 C-31.51953125 5.91859375 -31.51953125 3.27859375 -31.51953125 0.55859375 C-22.02399774 -3.51092061 -9.48589174 -4.88404037 0 0 Z " fill="#F5F5F6" transform="translate(373.51953125,191.44140625)"/>
<path d="M0 0 C3.31804319 1.33100211 5.48261708 3.48261708 8 6 C8.89614635 8.71621195 9.12277071 11.18662139 9.11352539 14.03417969 C9.11344986 14.81468689 9.11337433 15.59519409 9.11329651 16.39935303 C9.10813522 17.23178528 9.10297394 18.06421753 9.09765625 18.921875 C9.0962413 19.78186096 9.09482635 20.64184692 9.09336853 21.52789307 C9.08778097 24.26863109 9.07523075 27.00928676 9.0625 29.75 C9.05748339 31.6106759 9.05292077 33.47135309 9.04882812 35.33203125 C9.03781561 39.88805246 9.02055951 44.44401228 9 49 C5.37 49 1.74 49 -2 49 C-2.01458252 47.88963379 -2.02916504 46.77926758 -2.04418945 45.63525391 C-2.10207125 41.52375746 -2.17930364 37.41281457 -2.26245117 33.30175781 C-2.2957484 31.52092458 -2.32376531 29.73998459 -2.34643555 27.95898438 C-2.37989432 25.40188001 -2.43220301 22.84575824 -2.48828125 20.2890625 C-2.49467117 19.49005524 -2.5010611 18.69104797 -2.50764465 17.86782837 C-2.53954217 15.3870923 -2.53954217 15.3870923 -3 12 C-5.85843589 9.69375927 -5.85843589 9.69375927 -9.3125 10 C-12.90832414 10.97513875 -15.15243387 11.96751803 -17.73608398 14.67285156 C-20.70686266 20.14271101 -19.88820665 27.2880564 -19.875 33.375 C-19.8931399 34.88935758 -19.91394667 36.4036857 -19.9375 37.91796875 C-19.98917723 41.61214224 -20.00444289 45.30541879 -20 49 C-23.63 49 -27.26 49 -31 49 C-31 33.16 -31 17.32 -31 1 C-27.37 1 -23.74 1 -20 1 C-19.67 2.65 -19.34 4.3 -19 6 C-18.21625 5.195625 -17.4325 4.39125 -16.625 3.5625 C-11.75559707 -1.19096476 -6.54605742 -0.64093251 0 0 Z " fill="#F9F9F9" transform="translate(425,189)"/>
<path d="M0 0 C1.03083529 28.21316896 1.03083529 28.21316896 -8 39 C-12.96193409 44.22189875 -17.83506672 47.64933933 -25 49 C-26.66618778 49.03995091 -28.3340715 49.04959857 -30 49 C-28.57109997 46.38034994 -27.1413424 43.76122537 -25.70703125 41.14453125 C-24.62487686 39.15108895 -23.55782735 37.14931089 -22.51171875 35.13671875 C-19.62905676 29.64334401 -16.5214047 24.81589836 -12.515625 20.0703125 C-10.86231272 17.81192202 -9.93414133 15.62841728 -9 13 C-18.79841682 17.89920841 -23.48261971 28.57948511 -28.61914062 37.70336914 C-29.57943563 39.40211585 -30.55896303 41.08994577 -31.5390625 42.77734375 C-32.10834473 43.78015381 -32.67762695 44.78296387 -33.26416016 45.81616211 C-33.8369873 46.53682861 -34.40981445 47.25749512 -35 48 C-36.32 48 -37.64 48 -39 48 C-42.29226712 43.06159933 -41.63901033 37.30781819 -40.53515625 31.59375 C-37.3316901 20.82707087 -30.30043006 12.57631348 -20.62109375 7.08203125 C-7.08350478 0 -7.08350478 0 0 0 Z " fill="#98B66D" transform="translate(183,155)"/>
<path d="M0 0 C15.27018371 3.06965043 27.22555292 9.41895324 36.1953125 22.28125 C41.21900147 29.84940482 42.15339901 36.99896456 41 46 C39.4765625 47.921875 39.4765625 47.921875 38 49 C33.9142009 47.63806697 33.30613581 45.66634501 31.125 42 C30.77131348 41.41130127 30.41762695 40.82260254 30.05322266 40.21606445 C28.08194132 36.91423576 26.20038969 33.57158283 24.375 30.1875 C21.14228435 24.26629692 17.15191821 18.41592989 12 14 C11.34 14 10.68 14 10 14 C10.59958874 17.17991496 11.59810075 19.03875016 13.6328125 21.53515625 C17.52920731 26.55761615 20.67866022 31.95237845 23.875 37.4375 C24.46796875 38.44232422 25.0609375 39.44714844 25.671875 40.48242188 C30 47.85718786 30 47.85718786 30 49 C20.59408523 48.56454098 14.03073455 45.83565611 7.53515625 38.92578125 C5.09822759 35.86876896 3.43006413 32.62599199 2 29 C1.63777344 28.17371094 1.27554688 27.34742188 0.90234375 26.49609375 C-0.42057106 21.37051472 -0.20934439 16.39328024 -0.125 11.125 C-0.11597656 10.05507812 -0.10695313 8.98515625 -0.09765625 7.8828125 C-0.07419342 5.25497561 -0.04136459 2.62760594 0 0 Z " fill="#97B46E" transform="translate(93,155)"/>
<path d="M0 0 C1.09538086 -0.01836914 1.09538086 -0.01836914 2.21289062 -0.03710938 C7.39504359 -0.05087949 11.82988301 0.75986455 16.8125 2.1875 C16.8125 4.8275 16.8125 7.4675 16.8125 10.1875 C15.90628906 10.03152344 15.00007812 9.87554687 14.06640625 9.71484375 C3.87053265 7.68918837 3.87053265 7.68918837 -6.1875 9.1875 C-9.8056195 12.25370296 -12.97248103 15.89631423 -13.42578125 20.7265625 C-13.58464502 27.33195076 -13.37645365 32.82201924 -9.1875 38.1875 C-4.78128957 42.21468158 0.03296506 42.35129249 5.8125 42.1875 C8.30830027 41.60178903 10.56808084 40.85019388 12.9375 39.87890625 C14.8125 39.1875 14.8125 39.1875 17.8125 39.1875 C17.8125 42.1575 17.8125 45.1275 17.8125 48.1875 C7.7828382 51.05311766 -4.93406614 52.54583096 -14.4296875 47.3828125 C-19.37476876 44.02015724 -22.87888166 39.70308034 -25.1875 34.1875 C-25.7839842 31.04490226 -25.85560475 28.00542069 -25.8125 24.8125 C-25.79993164 23.55058838 -25.79993164 23.55058838 -25.78710938 22.26318359 C-25.57870142 16.55746167 -24.81120251 12.34480085 -21.04296875 7.8515625 C-14.46601353 1.95307214 -8.79506011 0.00756239 0 0 Z " fill="#F4F5F6" transform="translate(555.1875,188.8125)"/>
<path d="M0 0 C0.68964844 -0.00386719 1.37929688 -0.00773438 2.08984375 -0.01171875 C7.24666707 -0.00166646 7.24666707 -0.00166646 9.5 1.125 C9.5 5.745 9.5 10.365 9.5 15.125 C6.53 15.125 3.56 15.125 0.5 15.125 C0.5 12.815 0.5 10.505 0.5 8.125 C-6.2293821 9.51728595 -11.49860802 11.12291204 -15.5 17.125 C-15.73965047 19.58884903 -15.87242 21.95040576 -15.9140625 24.41796875 C-15.93342865 25.12399734 -15.9527948 25.83002594 -15.9727478 26.55744934 C-16.03245224 28.80901061 -16.0788914 31.06062328 -16.125 33.3125 C-16.16318829 34.84051689 -16.20224052 36.36851245 -16.2421875 37.89648438 C-16.33814596 41.63914935 -16.42221011 45.3819151 -16.5 49.125 C-20.13 49.125 -23.76 49.125 -27.5 49.125 C-27.5 33.285 -27.5 17.445 -27.5 1.125 C-23.87 1.125 -20.24 1.125 -16.5 1.125 C-16.17 2.775 -15.84 4.425 -15.5 6.125 C-14.55125 5.320625 -13.6025 4.51625 -12.625 3.6875 C-8.44286869 0.14177998 -5.39737578 -0.03026566 0 0 Z " fill="#F9FAFA" transform="translate(263.5,188.875)"/>
<path d="M0 0 C3.48728957 2.74531306 5.26225225 4.66847114 6 9 C7.21961548 25.09892437 7.21961548 25.09892437 2.484375 31.6171875 C-0.41912399 34.32202604 -2.46059806 35 -6.4375 35 C-11.02417563 33.71251211 -12.37098104 31.90597103 -15 28 C-18.03793466 21.70028285 -18.19907742 14.18056722 -16.27734375 7.48046875 C-14.83147796 4.32532033 -13.3140696 2.28789714 -10.75 -0.0625 C-6.96814117 -1.35177005 -3.74423477 -1.24807826 0 0 Z " fill="#1B2A37" transform="translate(610,197)"/>
<path d="M0 0 C3.38119562 3.17327437 5.26408161 5.33660571 5.59375 10.0234375 C5.59325432 11.47429483 5.56107339 12.92542858 5.5 14.375 C5.48155029 15.12869873 5.46310059 15.88239746 5.4440918 16.65893555 C5.17944249 23.38161128 4.34499798 28.32930785 -0.25 33.5625 C-4.03169047 35.53929275 -5.94829682 35.22998132 -10 34 C-12.9807668 31.89951813 -14.72764409 30.26367426 -15.51171875 26.62573242 C-15.74710375 23.75491301 -15.78029577 20.94249171 -15.75 18.0625 C-15.78609375 17.08603516 -15.8221875 16.10957031 -15.859375 15.10351562 C-15.859375 8.11125139 -15.859375 8.11125139 -13.45898438 5.00732422 C-9.1901629 1.29371551 -5.80607373 -0.79691208 0 0 Z " fill="#1A2935" transform="translate(311,197)"/>
<path d="M0 0 C0.99 0 1.98 0 3 0 C4.03083529 28.21316896 4.03083529 28.21316896 -5 39 C-9.96193409 44.22189875 -14.83506672 47.64933933 -22 49 C-23.66618778 49.03995091 -25.3340715 49.04959857 -27 49 C-25.57109997 46.38034994 -24.1413424 43.76122537 -22.70703125 41.14453125 C-21.62487686 39.15108895 -20.55782735 37.14931089 -19.51171875 35.13671875 C-15.71574083 27.90287404 -11.31234423 20.35739985 -5 15 C-1.3125 14.3125 -1.3125 14.3125 2 14 C2 9.71 2 5.42 2 1 C1.34 0.67 0.68 0.34 0 0 Z " fill="#68844F" transform="translate(180,155)"/>
<path d="M0 0 C5.66470193 0.90477878 9.28156212 2.68791616 12.75 7.3125 C14.22053788 9.52129572 15.62405125 11.73332237 17 14 C17.79954102 15.31218506 17.79954102 15.31218506 18.61523438 16.65087891 C30 35.44701423 30 35.44701423 30 37 C20.59408523 36.56454098 14.03073455 33.83565611 7.53515625 26.92578125 C5.08844685 23.85649949 3.48638874 20.61513644 2 17 C1.5875 16.071875 1.175 15.14375 0.75 14.1875 C-0.36049396 9.46790069 -0.15455189 4.82545341 0 0 Z " fill="#698450" transform="translate(93,167)"/>
<path d="M0 0 C0.33 0 0.66 0 1 0 C1.33 9.24 1.66 18.48 2 28 C2.66 27.67 3.32 27.34 4 27 C4.33 18.09 4.66 9.18 5 0 C5.33 0 5.66 0 6 0 C6.20638953 46.17727517 6.20638953 46.17727517 5 68 C3.02 68.495 3.02 68.495 1 69 C-0.37068415 46.01656402 -0.09738766 23.01345262 0 0 Z " fill="#ADB6BB" transform="translate(135,97)"/>
<path d="M0 0 C0.77533988 10.95813703 0.77533988 10.95813703 -2 14.6875 C-6.01079631 16.44222339 -8.57785815 17.07019273 -13 17 C-16.06789958 14.46898284 -16.86188722 12.84594076 -17.5 8.9375 C-16.87750272 5.28032851 -15.93320013 4.21971902 -13 2 C-8.66912262 -0.40604299 -4.83159704 -0.16378295 0 0 Z " fill="#1E2D39" transform="translate(366,215)"/>
<path d="M0 0 C0.33 0 0.66 0 1 0 C1 24.42 1 48.84 1 74 C-4 72 -4 72 -5 71 C-5.08865208 68.1156618 -5.11521296 65.25537842 -5.09765625 62.37109375 C-5.0962413 61.50686295 -5.09482635 60.64263214 -5.09336853 59.75221252 C-5.08775239 56.98060708 -5.07519719 54.2090812 -5.0625 51.4375 C-5.05748708 49.5631522 -5.05292381 47.68880315 -5.04882812 45.81445312 C-5.03777772 41.20960456 -5.0205023 36.60481579 -5 32 C-4.67 32 -4.34 32 -4 32 C-4 35.63 -4 39.26 -4 43 C-2.68 43 -1.36 43 0 43 C0 28.81 0 14.62 0 0 Z " fill="#6B7882" transform="translate(130,97)"/>
<path d="M0 0 C0.33 0 0.66 0 1 0 C1 15.51 1 31.02 1 47 C3.475 46.505 3.475 46.505 6 46 C6 53.92 6 61.84 6 70 C3.525 70.99 3.525 70.99 1 72 C0.17731822 67.69591473 -0.12191486 63.63955538 -0.11352539 59.26025391 C-0.11367142 58.61564209 -0.11381744 57.97103027 -0.1139679 57.30688477 C-0.11327661 55.19674195 -0.10552133 53.08668971 -0.09765625 50.9765625 C-0.09578928 49.5054021 -0.09436669 48.03424108 -0.09336853 46.56307983 C-0.08956533 42.70634215 -0.07975398 38.84964262 -0.06866455 34.99291992 C-0.05840302 31.05127478 -0.05386078 27.10962342 -0.04882812 23.16796875 C-0.03812959 15.44529518 -0.02107977 7.72265295 0 0 Z " fill="#7C8991" transform="translate(145,97)"/>
<path d="M0 0 C6.49051438 2.82011433 10.48769492 9.11145094 14.5625 14.6875 C15.33787109 15.74517578 15.33787109 15.74517578 16.12890625 16.82421875 C17 19 17 19 16.27734375 21.70703125 C15 24 15 24 13 25 C12.71801758 24.5059668 12.43603516 24.01193359 12.14550781 23.50292969 C10.85356811 21.24811929 9.5519018 18.99907192 8.25 16.75 C7.8065625 15.97269531 7.363125 15.19539062 6.90625 14.39453125 C4.58244759 10.39622416 2.35193058 7.22544264 -1 4 C-0.75 1.75 -0.75 1.75 0 0 Z " fill="#202D2F" transform="translate(103,168)"/>
<path d="M0 0 C6.6 0 13.2 0 20 0 C20 1.98 20 3.96 20 6 C13.4 6 6.8 6 0 6 C0 4.02 0 2.04 0 0 Z " fill="#ECEEEF" transform="translate(95,103)"/>
<path d="M0 0 C6.6 0 13.2 0 20 0 C20 1.98 20 3.96 20 6 C13.4 6 6.8 6 0 6 C0 4.02 0 2.04 0 0 Z " fill="#ECEEEF" transform="translate(160,95)"/>
<path d="M0 0 C0.33 0 0.66 0 1 0 C1.0740421 5.09029944 1.12855008 10.18028692 1.16479492 15.27099609 C1.1799009 17.00347349 1.20038694 18.73591254 1.22631836 20.46826172 C1.26262321 22.95549978 1.27970765 25.44223326 1.29296875 27.9296875 C1.30845261 28.70682098 1.32393646 29.48395447 1.33988953 30.28463745 C1.34057617 32.46826172 1.34057617 32.46826172 1 36 C-2 38 -2 38 -5 38 C-5 26.12 -5 14.24 -5 2 C-4.67 2 -4.34 2 -4 2 C-4 9.92 -4 17.84 -4 26 C-3.01 25.67 -2.02 25.34 -1 25 C-0.67 16.75 -0.34 8.5 0 0 Z " fill="#505F6B" transform="translate(140,140)"/>
<path d="M0 0 C1.29663922 2.59327843 1.12003569 4.46408068 1.11352539 7.36767578 C1.11341209 9.04919235 1.11341209 9.04919235 1.11329651 10.76467896 C1.10813522 11.97928802 1.10297394 13.19389709 1.09765625 14.4453125 C1.0962413 15.68546112 1.09482635 16.92560974 1.09336853 18.20333862 C1.08871096 21.50118133 1.07972439 24.79897546 1.06866455 28.09680176 C1.05843731 31.46166387 1.05386809 34.82653308 1.04882812 38.19140625 C1.03778269 44.79428993 1.02103247 51.39714099 1 58 C1.99 58 2.98 58 4 58 C4 62.29 4 66.58 4 71 C2.68 71 1.36 71 0 71 C-0.93090983 62.6685229 -1.14659408 54.43327029 -1.1328125 46.0546875 C-1.13376923 44.76305695 -1.13472595 43.47142639 -1.13571167 42.14065552 C-1.13717251 39.43295063 -1.13508315 36.72527909 -1.13037109 34.01757812 C-1.12461724 30.54173636 -1.12799822 27.06597087 -1.13394356 23.59013176 C-1.13840751 20.26581073 -1.13529324 16.9415107 -1.1328125 13.6171875 C-1.13483673 12.36630341 -1.13686096 11.11541931 -1.13894653 9.82662964 C-1.13579437 8.68098541 -1.13264221 7.53534119 -1.12939453 6.35498047 C-1.12859894 5.34225067 -1.12780334 4.32952087 -1.12698364 3.28610229 C-1 1 -1 1 0 0 Z " fill="#D6DBDD" transform="translate(126,69)"/>
<path d="M0 0 C1.32 0 2.64 0 4 0 C4 8.91 4 17.82 4 27 C2.68 27 1.36 27 0 27 C0 18.09 0 9.18 0 0 Z " fill="#54616E" transform="translate(110,130)"/>
<path d="M0 0 C0.33 0 0.66 0 1 0 C1 24.09 1 48.18 1 73 C-1.475 73.495 -1.475 73.495 -4 74 C-4.1875 70.625 -4.1875 70.625 -4 67 C-2.515 66.01 -2.515 66.01 -1 65 C-0.52105041 62.17326576 -0.52105041 62.17326576 -0.56762695 58.80615234 C-0.53793571 56.85435562 -0.53793571 56.85435562 -0.50764465 54.86312866 C-0.50087433 53.43739974 -0.49442752 52.01166925 -0.48828125 50.5859375 C-0.47144175 49.13146435 -0.4532925 47.67700583 -0.43388367 46.2225647 C-0.38629769 42.39213631 -0.35654436 38.56176716 -0.33044434 34.73114014 C-0.30068185 30.82324518 -0.25413687 26.91555458 -0.20898438 23.0078125 C-0.12285365 15.33864286 -0.05555229 7.66945853 0 0 Z " fill="#ACB3B8" transform="translate(150,70)"/>
<path d="M0 0 C0 8.25 0 16.5 0 25 C-1.32 25.33 -2.64 25.66 -4 26 C-4.08678303 22.04180389 -4.14031733 18.08385066 -4.1875 14.125 C-4.21263672 12.99707031 -4.23777344 11.86914062 -4.26367188 10.70703125 C-4.27333984 9.63066406 -4.28300781 8.55429688 -4.29296875 7.4453125 C-4.3086792 6.45031738 -4.32438965 5.45532227 -4.34057617 4.43017578 C-4.22818604 3.62821777 -4.1157959 2.82625977 -4 2 C-1 0 -1 0 0 0 Z " fill="#86959F" transform="translate(140,140)"/>
<path d="M0 0 C1.65 0 3.3 0 5 0 C5 6.27 5 12.54 5 19 C3.35 19 1.7 19 0 19 C0 12.73 0 6.46 0 0 Z " fill="#44545E" transform="translate(95,130)"/>
<path d="M0 0 C1.32 0 2.64 0 4 0 C4 7.59 4 15.18 4 23 C2.68 23 1.36 23 0 23 C0 15.41 0 7.82 0 0 Z " fill="#455864" transform="translate(103,130)"/>
<path d="M0 0 C0.33 0 0.66 0 1 0 C1 3.63 1 7.26 1 11 C2.32 11 3.64 11 5 11 C5 16.61 5 22.22 5 28 C3.68 28.33 2.36 28.66 1 29 C0.35782702 19.32153574 -0.16831537 9.70618661 0 0 Z " fill="#91A0A9" transform="translate(125,129)"/>
<path d="M0 0 C2.475 0.495 2.475 0.495 5 1 C4.01 1.33 3.02 1.66 2 2 C2.75796875 2.90492188 2.75796875 2.90492188 3.53125 3.828125 C4.1809375 4.62734375 4.830625 5.4265625 5.5 6.25 C6.1496875 7.03890625 6.799375 7.8278125 7.46875 8.640625 C9 11 9 11 9 15 C5.26512223 14.5020163 3.18762365 14.12508244 0 12 C-0.29296875 9.1796875 -0.29296875 9.1796875 -0.1875 5.875 C-0.16042969 4.77929688 -0.13335937 3.68359375 -0.10546875 2.5546875 C-0.07066406 1.71164063 -0.03585938 0.86859375 0 0 Z " fill="#86A462" transform="translate(93,155)"/>
<path d="M0 0 C-0.53849281 4.1187423 -1.76435333 6.41952244 -4.375 9.625 C-4.98085937 10.38039062 -5.58671875 11.13578125 -6.2109375 11.9140625 C-7.74154078 13.69865235 -9.30778787 15.37007789 -11 17 C-10.67 15.35 -10.34 13.7 -10 12 C-10.66 12 -11.32 12 -12 12 C-10.51657119 6.56076104 -5.97265869 0 0 0 Z " fill="#203130" transform="translate(174,168)"/>
<path d="M0 0 C0.33 0 0.66 0 1 0 C1 7.92 1 15.84 1 24 C-0.65 24.66 -2.3 25.32 -4 26 C-4 24.02 -4 22.04 -4 20 C-2.68 19.67 -1.36 19.34 0 19 C0 12.73 0 6.46 0 0 Z " fill="#4F5E6B" transform="translate(150,143)"/>
<path d="M0 0 C0.99 0 1.98 0 3 0 C3 4.95 3 9.9 3 15 C2.01 15 1.02 15 0 15 C0 10.05 0 5.1 0 0 Z " fill="#566471" transform="translate(161,142)"/>
<path d="M0 0 C0.99 0 1.98 0 3 0 C3 3.3 3 6.6 3 10 C1.02 10.99 1.02 10.99 -1 12 C-1.02687279 10.18757948 -1.04633715 8.37504767 -1.0625 6.5625 C-1.07410156 5.55316406 -1.08570313 4.54382813 -1.09765625 3.50390625 C-1 1 -1 1 0 0 Z " fill="#DBE1E3" transform="translate(147,125)"/>
<path d="M0 0 C1.32 0 2.64 0 4 0 C4 3.3 4 6.6 4 10 C2.68 10 1.36 10 0 10 C0 6.7 0 3.4 0 0 Z " fill="#D5DADE" transform="translate(103,130)"/>
<path d="M0 0 C1.32 0 2.64 0 4 0 C4 3.3 4 6.6 4 10 C2.68 10 1.36 10 0 10 C0 6.7 0 3.4 0 0 Z " fill="#DFE3E7" transform="translate(110,130)"/>
<path d="M0 0 C1.32 0 2.64 0 4 0 C4 3.3 4 6.6 4 10 C2.68 10 1.36 10 0 10 C0 6.7 0 3.4 0 0 Z " fill="#DFE4E6" transform="translate(96,115)"/>
<path d="M0 0 C1.32 0 2.64 0 4 0 C4 3.3 4 6.6 4 10 C2.68 10 1.36 10 0 10 C0 6.7 0 3.4 0 0 Z " fill="#E5E9EB" transform="translate(110,115)"/>
<path d="M0 0 C1.32 0 2.64 0 4 0 C4 3.3 4 6.6 4 10 C2.68 10 1.36 10 0 10 C0 6.7 0 3.4 0 0 Z " fill="#DBE0E2" transform="translate(103,115)"/>
<path d="M0 0 C1.32 0 2.64 0 4 0 C4 2.97 4 5.94 4 9 C2.68 9.33 1.36 9.66 0 10 C0 6.7 0 3.4 0 0 Z " fill="#D8DCDE" transform="translate(96,130)"/>
<path d="M0 0 C0 1.65 0 3.3 0 5 C-2.31 5.66 -4.62 6.32 -7 7 C-7.33 5.68 -7.66 4.36 -8 3 C-1.125 0 -1.125 0 0 0 Z " fill="#83A25E" transform="translate(182,164)"/>
<path d="M0 0 C0.33 0.66 0.66 1.32 1 2 C-0.24517965 3.13033298 -1.49636652 4.25405036 -2.75 5.375 C-3.44609375 6.00148437 -4.1421875 6.62796875 -4.859375 7.2734375 C-6.84508688 8.87505183 -8.67954093 9.96520068 -11 11 C-11 11.66 -11 12.32 -11 13 C-11.66 12.67 -12.32 12.34 -13 12 C-9.04174791 7.17514834 -5.40839975 3.16589254 0 0 Z " fill="#87A06A" transform="translate(161,163)"/>
<path d="M0 0 C1.32 0 2.64 0 4 0 C4 1.32 4 2.64 4 4 C3.01 4 2.02 4 1 4 C1 7.96 1 11.92 1 16 C1.99 16.33 2.98 16.66 4 17 C2.68 17 1.36 17 0 17 C0 11.39 0 5.78 0 0 Z " fill="#475662" transform="translate(110,140)"/>
<path d="M0 0 C0 2.97 0 5.94 0 9 C-1.32 9 -2.64 9 -4 9 C-4.1875 5.625 -4.1875 5.625 -4 2 C-1 0 -1 0 0 0 Z " fill="#BDC8CE" transform="translate(150,135)"/>
<path d="M0 0 C1.32 0 2.64 0 4 0 C4 2.64 4 5.28 4 8 C2.68 8 1.36 8 0 8 C0 5.36 0 2.72 0 0 Z " fill="#CCD2D4" transform="translate(175,130)"/>
<path d="M0 0 C1.32 0 2.64 0 4 0 C4 2.64 4 5.28 4 8 C2.68 8 1.36 8 0 8 C0 5.36 0 2.72 0 0 Z " fill="#C8CFD3" transform="translate(175,118)"/>
<path d="M0 0 C1.32 0 2.64 0 4 0 C4 2.64 4 5.28 4 8 C2.68 8 1.36 8 0 8 C0 5.36 0 2.72 0 0 Z " fill="#C7CED1" transform="translate(175,106)"/>
<path d="M0 0 C1.32 0 2.64 0 4 0 C4 2.64 4 5.28 4 8 C2.68 8 1.36 8 0 8 C0 5.36 0 2.72 0 0 Z " fill="#1C2834" transform="translate(141,79)"/>
<path d="M0 0 C1.32 0 2.64 0 4 0 C4 2.64 4 5.28 4 8 C2.68 8 1.36 8 0 8 C0 5.36 0 2.72 0 0 Z " fill="#192634" transform="translate(131,79)"/>
<path d="M0 0 C0 1.98 0 3.96 0 6 C-1.98 6.99 -1.98 6.99 -4 8 C-4 5.69 -4 3.38 -4 1 C-2 0 -2 0 0 0 Z " fill="#C6CED2" transform="translate(140,134)"/>
<path d="M0 0 C1.32 0 2.64 0 4 0 C4 1.98 4 3.96 4 6 C2.68 6 1.36 6 0 6 C0 4.02 0 2.04 0 0 Z " fill="#8D9CA4" transform="translate(146,144)"/>
<path d="M0 0 C0.99 0 1.98 0 3 0 C3 2.64 3 5.28 3 8 C2.01 8 1.02 8 0 8 C0 5.36 0 2.72 0 0 Z " fill="#E6EAEB" transform="translate(168,130)"/>
<path d="M0 0 C3.875 1.75 3.875 1.75 5 4 C3.02 4.99 3.02 4.99 1 6 C0.34 5.34 -0.32 4.68 -1 4 C-0.625 1.875 -0.625 1.875 0 0 Z " fill="#253632" transform="translate(103,168)"/>
<path d="M0 0 C0.99 0 1.98 0 3 0 C3 2.31 3 4.62 3 7 C2.01 7 1.02 7 0 7 C0 4.69 0 2.38 0 0 Z " fill="#EEEFF1" transform="translate(161,130)"/>
<path d="M0 0 C0.99 0 1.98 0 3 0 C3 2.31 3 4.62 3 7 C2.01 7 1.02 7 0 7 C0 4.69 0 2.38 0 0 Z " fill="#F0F3F5" transform="translate(168,118)"/>
<path d="M0 0 C0.99 0 1.98 0 3 0 C3 2.31 3 4.62 3 7 C2.01 7 1.02 7 0 7 C0 4.69 0 2.38 0 0 Z " fill="#EFF1F5" transform="translate(161,118)"/>
<path d="M0 0 C0.99 0 1.98 0 3 0 C3 1.98 3 3.96 3 6 C2.01 6 1.02 6 0 6 C0 4.02 0 2.04 0 0 Z " fill="#829098" transform="translate(175,143)"/>
<path d="M0 0 C0.99 0 1.98 0 3 0 C3 1.98 3 3.96 3 6 C2.01 6 1.02 6 0 6 C0 4.02 0 2.04 0 0 Z " fill="#F3F5F8" transform="translate(161,107)"/>
<path d="M0 0 C0.99 0 1.98 0 3 0 C3 1.98 3 3.96 3 6 C2.01 6 1.02 6 0 6 C0 4.02 0 2.04 0 0 Z " fill="#F5F8F8" transform="translate(168,107)"/>
</svg>
